<?xml version="1.0" encoding="UTF-8" standalone="no"?>
<!-- Created with Inkscape (http://www.inkscape.org/) -->

<svg
   width="97.663635mm"
   height="97.165695mm"
   viewBox="0 0 97.663635 97.165695"
   version="1.1"
   id="svg5"
   xml:space="preserve"
   xmlns:inkscape="http://www.inkscape.org/namespaces/inkscape"
   xmlns:sodipodi="http://sodipodi.sourceforge.net/DTD/sodipodi-0.dtd"
   xmlns="http://www.w3.org/2000/svg"
   xmlns:svg="http://www.w3.org/2000/svg"><sodipodi:namedview
     id="namedview7"
     pagecolor="#ffffff"
     bordercolor="#000000"
     borderopacity="0.25"
     inkscape:showpageshadow="2"
     inkscape:pageopacity="0.0"
     inkscape:pagecheckerboard="0"
     inkscape:deskcolor="#d1d1d1"
     inkscape:document-units="mm"
     showgrid="false" /><defs
     id="defs2" /><g
     inkscape:label="Layer 1"
     inkscape:groupmode="layer"
     id="layer1"
     transform="translate(-368.53263,-252.73597)"><g
       aria-label="Systems Design . Full Stack Dev . "
       id="text432"
       style="font-size:14.8167px;font-family:'Stardos Stencil';-inkscape-font-specification:'Stardos Stencil';text-align:center;text-orientation:upright;text-anchor:middle;opacity:1;stroke-width:3;stroke-opacity:0.792157"
       inkscape:export-filename="new-circular-text.svg"
       inkscape:export-xdpi="96"
       inkscape:export-ydpi="96"><path
         d="m 463.66471,303.29696 q 0.3539,0.0348 0.64906,0.21269 0.29371,0.19265 0.48735,0.49456 0.19219,0.31666 0.28576,0.72784 0.0921,0.42592 0.0428,0.92727 -0.0783,0.79627 -0.41474,1.49271 -0.33791,0.71118 -0.99877,1.37573 l 0.8328,0.76673 q 0.71234,-0.73393 1.10608,-1.55873 0.40704,-0.80861 0.51867,-1.94402 0.0725,-0.73728 -0.0878,-1.37834 -0.14555,-0.63961 -0.48399,-1.13442 -0.3237,-0.49335 -0.81515,-0.79477 -0.49145,-0.30141 -1.11077,-0.3623 -0.64881,-0.0638 -1.14096,0.0963 -0.49216,0.16005 -0.88809,0.55288 -0.39594,0.39283 -0.7104,1.01699 -0.31591,0.63891 -0.59459,1.5048 -0.25668,0.79361 -0.49911,1.29086 -0.24388,0.512 -0.50881,0.78372 -0.26492,0.27171 -0.57143,0.36068 -0.29176,0.0904 -0.6604,0.0542 -0.79627,-0.0783 -1.22053,-0.76018 -0.42572,-0.66716 -0.32279,-1.7141 0.10582,-1.07643 0.5409,-1.86739 0.44982,-0.78951 1.26684,-1.52803 l -0.78421,-0.80662 q -0.93183,0.84634 -1.44474,1.8232 -0.49961,0.99305 -0.62138,2.23168 -0.0754,0.76677 0.0673,1.43587 0.14266,0.66911 0.4811,1.16391 0.337,0.50955 0.85649,0.82861 0.51949,0.31906 1.18305,0.3843 1.19439,0.11742 1.95387,-0.64164 0.75803,-0.74433 1.31103,-2.43187 0.26103,-0.83785 0.50636,-1.36459 0.26008,-0.52529 0.52645,-0.81176 0.28112,-0.28501 0.58763,-0.37398 0.30651,-0.089 0.67515,-0.0527 z"
         style="font-family:Gotham;-inkscape-font-specification:Gotham"
         id="path1509" /><path
         d="m 459.81394,319.68223 0.39222,-1.14992 -5.2501,-4.38941 6.94332,-0.57489 0.40656,-1.19199 -8.34609,0.83221 q -0.66128,-0.58561 -0.84098,-1.02262 -0.1797,-0.437 -0.0123,-0.92782 0.11958,-0.35059 0.28057,-0.59312 0.14219,-0.23329 0.37331,-0.4519 l -0.73107,-0.65638 q -0.30667,0.30243 -0.51517,0.63834 -0.22252,0.33113 -0.37558,0.77988 -0.27742,0.81335 -0.006,1.53213 0.26666,0.73281 1.2307,1.57823 z"
         style="font-family:Gotham;-inkscape-font-specification:Gotham"
         id="path1506" /><path
         d="m 450.98558,324.16429 0.0255,0.015 q 0.44722,0.26253 0.8664,0.25089 0.41168,10e-4 0.80892,-0.17802 0.39725,-0.17914 0.76283,-0.47996 0.35809,-0.28805 0.69812,-0.60387 0.29724,-0.27221 0.57949,-0.51887 0.28224,-0.24666 0.55254,-0.41442 0.26279,-0.15499 0.51141,-0.19803 0.2614,-0.0355 0.4914,0.0995 l 0.0256,0.015 q 0.40888,0.24003 0.47469,0.74255 0.0786,0.51002 -0.26646,1.09779 -0.28504,0.48555 -0.75647,0.87887 -0.46615,0.4136 -1.03007,0.70107 l 0.47857,0.88228 q 0.63226,-0.31609 1.19148,-0.82968 0.57199,-0.50609 0.93204,-1.11942 0.28503,-0.48555 0.39201,-0.98973 0.11226,-0.4839 0.0367,-0.94058 -0.0703,-0.43641 -0.33052,-0.81254 -0.24749,-0.36864 -0.66915,-0.61617 l -0.0256,-0.015 q -0.45999,-0.27004 -0.87917,-0.2584 -0.42668,0.0244 -0.81115,0.21107 -0.39197,0.19943 -0.75755,0.50025 -0.36031,0.3211 -0.70034,0.63692 -0.27697,0.26694 -0.55171,0.50081 -0.28225,0.24666 -0.55782,0.39415 -0.2628,0.15499 -0.51669,0.17775 -0.2614,0.0355 -0.50418,-0.10698 l -0.0256,-0.015 q -0.48556,-0.28503 -0.54164,-0.83339 -0.0561,-0.54835 0.29647,-1.1489 0.34504,-0.58778 0.90731,-1.04804 0.55477,-0.44748 1.27869,-0.74411 l -0.41023,-0.91088 q -0.77726,0.29968 -1.47315,0.87049 -0.68311,0.57831 -1.10317,1.29386 -0.29254,0.49833 -0.41229,0.99501 -0.11448,0.51695 -0.0389,0.97363 0.068,0.46947 0.32079,0.85838 0.25804,0.4092 0.73082,0.68673 z"
         style="font-family:Gotham;-inkscape-font-specification:Gotham"
         id="path1503" /><path
         d="m 452.02918,330.0926 -1.55979,1.86324 0.77256,0.64674 1.55979,-1.86324 1.77235,1.4837 0.73234,-0.87482 -1.77235,-1.4837 0.68478,-0.818 -0.77256,-0.64674 -0.68479,0.818 -3.5447,-2.96739 q -0.44309,-0.37093 -0.86582,-0.51226 -0.42274,-0.14133 -0.80794,-0.0967 -0.38336,0.0655 -0.73105,0.29621 -0.34768,0.23067 -0.64252,0.58286 -0.2663,0.31812 -0.40738,0.62513 -0.16194,0.30886 -0.22718,0.64071 l 0.74984,0.62772 q 0.0766,-0.32234 0.20235,-0.56488 0.11624,-0.23119 0.30646,-0.45841 0.37093,-0.44309 0.81505,-0.53505 0.44413,-0.092 0.98946,0.36456 z"
         style="font-family:Gotham;-inkscape-font-specification:Gotham"
         id="path1500" /><path
         d="m 445.78505,332.0798 -4.68914,3.86209 q 0.0545,0.0895 0.11102,0.1581 0.0565,0.0686 0.10362,0.12581 0.53692,0.6519 1.1909,1.07303 0.65398,0.42113 1.35705,0.55229 0.70308,0.13115 1.41555,-0.0526 0.7219,-0.17228 1.3738,-0.7092 0.6176,-0.50867 0.94588,-1.18215 0.31685,-0.66407 0.34573,-1.39808 0.0383,-0.72258 -0.21537,-1.4734 -0.25571,-0.72997 -0.78321,-1.37044 -0.56519,-0.68621 -1.26491,-1.06966 -0.71116,-0.37403 -1.45057,-0.45607 -0.72998,-0.0706 -1.45591,0.14338 -0.71651,0.22543 -1.32267,0.72468 -0.84633,0.69706 -1.17326,1.4654 -0.31751,0.77979 -0.34909,1.65038 l 0.95403,0.0396 q 0.0551,-0.67885 0.31277,-1.27496 0.24621,-0.58668 0.8638,-1.09535 0.38886,-0.32027 0.84702,-0.48648 0.46758,-0.15477 0.96074,-0.13865 0.50258,0.0276 0.987,0.24282 0.49384,0.22671 0.93522,0.66938 z m 0.53692,0.6519 q 0.3122,0.47229 0.45352,0.97014 0.14131,0.49786 0.10635,0.96814 -0.0255,0.48172 -0.23475,0.90358 -0.19979,0.43329 -0.58865,0.75356 -0.44604,0.36737 -0.919,0.46899 -0.47499,0.12247 -0.9298,0.0364 -0.46625,-0.0767 -0.89349,-0.33904 -0.43867,-0.25294 -0.80267,-0.62497 z"
         style="font-family:Gotham;-inkscape-font-specification:Gotham"
         id="path1497" /><path
         d="m 434.14662,342.81315 q 0.53871,0.48127 1.26499,0.64312 0.73199,0.17551 1.59307,-0.18486 0.45105,-0.18876 0.74699,-0.44111 0.29593,-0.25235 0.48921,-0.5581 0.199,-0.29209 0.31473,-0.62964 0.10205,-0.33182 0.17105,-0.66588 l 0.49766,1.18912 1.05243,-0.44045 -2.95732,-7.06636 -1.05243,0.44045 1.68744,4.03206 q 0.20593,0.49205 0.22146,0.95134 0.0213,0.47296 -0.11259,0.88234 -0.14751,0.4151 -0.43424,0.72784 -0.28673,0.31274 -0.71043,0.49007 -0.84742,0.35465 -1.56033,-0.006 -0.72085,-0.3408 -1.13842,-1.33856 l -1.73893,-4.15508 -1.03877,0.43474 1.70461,4.07306 q 0.21736,0.51939 0.23862,0.99235 0.008,0.47868 -0.1377,0.86072 -0.15324,0.40143 -0.4514,0.68684 -0.29245,0.29907 -0.68882,0.46495 -0.86109,0.36037 -1.57399,1.9e-4 -0.72086,-0.34079 -1.14987,-1.36589 l -1.72749,-4.12774 -1.05243,0.44045 1.83045,4.37376 q 0.55485,1.3258 1.56653,1.78581 1.0174,0.47368 2.24752,-0.0411 0.46471,-0.19449 0.80165,-0.464 0.32328,-0.26378 0.54389,-0.58098 0.22061,-0.3172 0.35796,-0.67985 0.12367,-0.35694 0.1949,-0.72405 z"
         style="font-family:Gotham;-inkscape-font-specification:Gotham"
         id="path1494" /><path
         d="m 419.07923,342.0841 0.004,0.0294 q 0.0616,0.51491 0.32458,0.84157 0.24823,0.32842 0.63125,0.53626 0.38302,0.20783 0.84374,0.31682 0.44601,0.11076 0.90321,0.19033 0.39659,0.0719 0.76376,0.14733 0.36717,0.0754 0.6643,0.18908 0.28243,0.11542 0.46715,0.2873 0.18648,0.18659 0.21818,0.4514 l 0.004,0.0294 q 0.0564,0.47077 -0.30387,0.82726 -0.35847,0.37121 -1.03521,0.45222 -0.55904,0.0669 -1.15745,-0.0704 -0.61136,-0.1208 -1.18149,-0.39577 l -0.41276,0.91491 q 0.63425,0.31206 1.38154,0.44644 0.74905,0.14909 1.45521,0.0646 0.55904,-0.0669 1.02516,-0.28687 0.45316,-0.20347 0.77102,-0.53997 0.3049,-0.32002 0.44684,-0.75485 0.14371,-0.4201 0.0856,-0.90559 l -0.004,-0.0294 q -0.0634,-0.52962 -0.32634,-0.85629 -0.27766,-0.3249 -0.65892,-0.51802 -0.39597,-0.19136 -0.85669,-0.30035 -0.47367,-0.0925 -0.93087,-0.1721 -0.38012,-0.0589 -0.73258,-0.13614 -0.36717,-0.0754 -0.65135,-0.20555 -0.28242,-0.11542 -0.45419,-0.30377 -0.18648,-0.18659 -0.21995,-0.46612 l -0.004,-0.0294 q -0.0669,-0.55904 0.33569,-0.93553 0.4026,-0.37649 1.09405,-0.45926 0.67674,-0.081 1.38341,0.0881 0.69197,0.17085 1.36621,0.56766 l 0.47689,-0.87783 q -0.70895,-0.43742 -1.5845,-0.64598 -0.87378,-0.19385 -1.69764,-0.0952 -0.57375,0.0687 -1.04162,0.27392 -0.48083,0.22171 -0.79869,0.55821 -0.33257,0.33826 -0.48922,0.77484 -0.1696,0.45305 -0.10444,0.99739 z"
         style="font-family:Gotham;-inkscape-font-specification:Gotham"
         id="path1491" /><path
         d="m 401.94388,342.7351 q -0.25752,1.06576 -0.0914,2.08146 0.16614,1.01571 0.72269,1.86661 0.54215,0.84743 1.44542,1.462 0.88539,0.62551 2.06638,0.91087 l 3.49974,0.84564 2.436,-10.08156 -3.49974,-0.84564 q -1.18098,-0.28536 -2.25429,-0.13314 -1.08772,0.14874 -1.95698,0.65512 -0.88368,0.5029 -1.49526,1.33069 -0.61506,0.84218 -0.87258,1.90795 z m 1.18794,0.25655 q 0.20532,-0.84973 0.68177,-1.49676 0.46205,-0.65051 1.14157,-1.06556 0.66164,-0.40412 1.51244,-0.51864 0.85081,-0.11453 1.80135,0.11515 l 2.36197,0.57072 -1.92793,7.97884 -2.36196,-0.57073 q -0.95055,-0.22968 -1.65171,-0.73445 -0.70464,-0.49036 -1.10528,-1.16641 -0.41853,-0.66512 -0.52909,-1.46924 -0.12497,-0.80759 0.0769,-1.64292 z"
         style="font-family:Gotham;-inkscape-font-specification:Gotham"
         id="path1488" /><path
         d="m 398.8478,339.30146 -5.33072,-2.91327 q -0.0627,0.0839 -0.10537,0.16191 -0.0426,0.078 -0.0782,0.14302 -0.40502,0.7411 -0.55227,1.50488 -0.14725,0.76378 -0.007,1.46511 0.14015,0.70134 0.57601,1.29413 0.42876,0.60579 1.16986,1.0108 0.70209,0.3837 1.44939,0.43752 0.73429,0.0467 1.42626,-0.19987 0.68486,-0.23358 1.28717,-0.74866 0.5822,-0.50919 0.98011,-1.23728 0.42634,-0.78011 0.52158,-1.57231 0.0822,-0.7993 -0.11702,-1.51606 -0.20637,-0.70376 -0.67534,-1.29775 -0.47608,-0.581 -1.16517,-0.95759 -0.96213,-0.52581 -1.79696,-0.54304 -0.84194,-0.004 -1.66165,0.29073 l 0.31854,0.90014 q 0.65054,-0.20168 1.29972,-0.1846 0.63618,0.01 1.33827,0.39368 0.44206,0.24158 0.76696,0.60488 0.31778,0.37629 0.48651,0.83997 0.16161,0.47668 0.14226,1.00642 -0.0265,0.54275 -0.27288,1.11724 z m -0.40502,0.7411 q -0.32201,0.46565 -0.73142,0.78223 -0.4094,0.31658 -0.85887,0.45929 -0.45657,0.15572 -0.92599,0.11869 -0.47653,-0.024 -0.91859,-0.26563 -0.50707,-0.27712 -0.77754,-0.6782 -0.29057,-0.3952 -0.38007,-0.84935 -0.10251,-0.46126 -0.0181,-0.95548 0.0714,-0.50132 0.28105,-0.9777 z"
         style="font-family:Gotham;-inkscape-font-specification:Gotham"
         id="path1485" /><path
         d="m 388.15662,330.35244 -0.0193,0.0225 q -0.33699,0.39417 -0.39914,0.80888 -0.0734,0.40508 0.0332,0.82761 0.10661,0.42253 0.33855,0.83526 0.22069,0.4031 0.4719,0.7933 0.21578,0.34043 0.40904,0.66161 0.19326,0.32117 0.31096,0.61673 0.10643,0.28593 0.10514,0.53824 -0.0109,0.26358 -0.18422,0.46629 l -0.0193,0.0225 q -0.3081,0.36038 -0.81436,0.33692 -0.5159,-0.0122 -1.03395,-0.4551 -0.42795,-0.36587 -0.73237,-0.89904 -0.32531,-0.53154 -0.5093,-1.13718 l -0.9526,0.31621 q 0.20014,0.67794 0.60755,1.31865 0.39779,0.65198 0.93836,1.11413 0.42796,0.36587 0.90551,0.55972 0.45667,0.19549 0.91952,0.20133 0.44196,0.007 0.85796,-0.1827 0.40636,-0.1789 0.7241,-0.55055 l 0.0192,-0.0225 q 0.34662,-0.40543 0.40877,-0.82014 0.0509,-0.42434 -0.0653,-0.83561 -0.1275,-0.4209 -0.35945,-0.83363 -0.25283,-0.41109 -0.50404,-0.8013 -0.21415,-0.31954 -0.39615,-0.63108 -0.19326,-0.32117 -0.29006,-0.61836 -0.10644,-0.28593 -0.0843,-0.53988 0.0109,-0.26358 0.19385,-0.47756 l 0.0193,-0.0225 q 0.36587,-0.42795 0.91555,-0.38687 0.54968,0.0411 1.07899,0.49361 0.51805,0.4429 0.87242,1.07725 0.34311,0.62473 0.50801,1.3895 l 0.96877,-0.24391 q -0.15854,-0.81781 -0.59828,-1.60312 -0.44937,-0.77405 -1.08004,-1.31323 -0.43921,-0.3755 -0.90714,-0.58062 -0.48882,-0.20347 -0.95167,-0.20931 -0.47411,-0.0155 -0.90137,0.16507 -0.44815,0.18217 -0.80439,0.59886 z"
         style="font-family:Gotham;-inkscape-font-specification:Gotham"
         id="path1482" /><path
         d="m 380.25209,332.26353 -0.94737,0.82984 0.85912,0.98081 0.94737,-0.82984 z m 7.08025,-6.08368 -5.76223,5.04736 0.75173,0.85821 5.76223,-5.04737 z"
         style="font-family:Gotham;-inkscape-font-specification:Gotham"
         id="path1479" /><path
         d="m 380.63354,318.64216 -5.41578,3.2706 0.58978,0.97661 1.17955,-0.71233 q -0.1438,0.36379 -0.2316,0.76298 -0.0878,0.3992 -0.0739,0.82352 0.006,0.41163 0.14224,0.86609 0.11563,0.44943 0.39137,0.90603 0.35234,0.58344 0.90497,1.01129 0.55263,0.42786 1.21892,0.61399 0.65361,0.19379 1.39789,0.1078 0.72394,-0.091 1.44689,-0.52759 0.72295,-0.43659 1.14051,-1.03494 0.4099,-0.61102 0.55535,-1.28736 0.13276,-0.66868 0.019,-1.34427 -0.13408,-0.68062 -0.49408,-1.27674 -0.54382,-0.90051 -1.325,-1.2769 -0.78118,-0.37638 -1.61235,-0.46293 l 0.77368,-0.46723 q 1.15418,-0.69701 2.12825,-0.4025 0.98675,0.28686 1.64546,1.37762 0.42893,0.71027 0.58863,1.46197 0.1597,0.75169 0.0985,1.56754 l 1.02908,-0.0156 q 0.0583,-0.93527 -0.1653,-1.82146 -0.22361,-0.88619 -0.72148,-1.7106 -0.45956,-0.761 -1.03015,-1.24725 -0.57825,-0.49893 -1.24454,-0.68507 -0.66126,-0.20647 -1.39525,-0.0748 -0.74165,0.11901 -1.5407,0.60155 z m -1.89376,2.42451 q 0.50733,-0.30638 1.04843,-0.35621 0.52842,-0.0422 1.02694,0.12411 0.49086,0.1536 0.91617,0.48526 0.41262,0.33932 0.69602,0.80861 0.27574,0.4566 0.37631,0.96706 0.0802,0.50544 -0.02,0.99869 -0.12058,0.48823 -0.41155,0.92358 -0.31132,0.43033 -0.81865,0.73671 -0.50734,0.30638 -1.02044,0.37392 -0.52578,0.0752 -1.00132,-0.053 -0.48321,-0.14092 -0.88051,-0.45487 -0.40496,-0.32664 -0.68836,-0.79592 -0.2834,-0.46928 -0.37894,-1.00009 -0.10822,-0.52315 -0.0156,-1.02908 0.0849,-0.51862 0.38091,-0.97432 0.28331,-0.44803 0.79065,-0.75441 z"
         style="font-family:Gotham;-inkscape-font-specification:Gotham"
         id="path1476" /><path
         d="m 376.23276,315.78311 q -0.50982,0.15683 -0.9826,0.13174 -0.47713,-0.0392 -0.86601,-0.24517 -0.40304,-0.20156 -0.6808,-0.55017 -0.29628,-0.35841 -0.44004,-0.82575 -0.30058,-0.97717 0.13303,-1.68412 0.43361,-0.70695 1.45326,-1.02061 l 4.27686,-1.31562 -0.33544,-1.09046 -4.54594,1.39839 q -0.65144,0.20039 -1.1286,0.5642 -0.48152,0.34964 -0.75062,0.83547 -0.28762,0.47603 -0.33886,1.06536 -0.0556,0.57517 0.14915,1.24077 0.29187,0.94884 0.89969,1.41295 0.59366,0.46846 1.30172,0.6537 l -1.27456,0.39207 0.33544,1.09046 7.32166,-2.25223 -0.33544,-1.09046 z"
         style="font-family:Gotham;-inkscape-font-specification:Gotham"
         id="path1473" /><path
         d="m 378.07377,301.09836 -1.55543,0.0315 0.0276,1.36286 1.55544,-0.0315 z"
         style="font-family:Gotham;-inkscape-font-specification:Gotham"
         id="path1470" /><path
         d="m 370.48236,284.15458 -1.94973,7.19325 10.01048,2.71333 0.30622,-1.12975 -4.36171,-1.18224 1.46908,-5.41996 -1.02965,-0.27909 -1.46908,5.41996 -3.57517,-0.96905 1.64351,-6.06349 z"
         style="font-family:Gotham;-inkscape-font-specification:Gotham"
         id="path1467" /><path
         d="m 381.15996,278.60962 q 0.46598,0.25956 0.76778,0.6312 0.3018,0.37163 0.43515,0.80208 0.12763,0.41029 0.0739,0.87219 -0.0595,0.44175 -0.29744,0.8689 -0.4975,0.89314 -1.30793,1.06924 -0.81042,0.1761 -1.74239,-0.34303 l -3.9091,-2.17748 -0.55518,0.99669 4.15503,2.31447 q 0.59542,0.33167 1.18103,0.43738 0.59281,0.0928 1.1355,-0.0289 0.53695,-0.14187 0.99068,-0.4997 0.46094,-0.37078 0.79982,-0.97915 0.48308,-0.86725 0.41053,-1.61999 -0.0855,-0.75996 -0.44167,-1.39933 l 1.16496,0.64892 0.54797,-0.98375 -6.69206,-3.72767 -0.54797,0.98375 z"
         style="font-family:Gotham;-inkscape-font-specification:Gotham"
         id="path1464" /><path
         d="m 386.96115,276.23711 -8.4415,-6.76247 -0.7133,0.8904 8.4415,6.76248 z"
         style="font-family:Gotham;-inkscape-font-specification:Gotham"
         id="path1461" /><path
         d="m 389.58737,273.35985 -7.72718,-7.5684 -0.79831,0.81506 7.72718,7.5684 z"
         style="font-family:Gotham;-inkscape-font-specification:Gotham"
         id="path1458" /><path
         d="m 392.12821,261.39574 q -0.17388,-0.31018 -0.19679,-0.65405 -0.01,-0.35111 0.12692,-0.68264 0.14981,-0.33877 0.43357,-0.6507 0.29668,-0.31919 0.73611,-0.56552 0.69792,-0.39124 1.46164,-0.5136 0.77663,-0.12962 1.69974,0.0324 l 0.15258,-1.12167 q -1.00947,-0.16452 -1.91124,-0.0157 -0.89608,0.12863 -1.89127,0.6865 -0.64623,0.36225 -1.08038,0.86042 -0.4414,0.48523 -0.65369,1.04587 -0.21953,0.54771 -0.18567,1.12323 0.0339,0.57553 0.33816,1.11836 0.31878,0.56868 0.73157,0.88083 0.41278,0.31215 0.96148,0.41223 0.54869,0.10009 1.24054,0.001 0.70477,-0.10631 1.57442,-0.373 0.79779,-0.24339 1.34434,-0.32895 0.55947,-0.0928 0.93388,-0.0309 0.37441,0.0619 0.62271,0.26242 0.24105,0.1876 0.42218,0.51072 0.39123,0.69792 0.0746,1.43597 -0.30374,0.7308 -1.22139,1.2452 -0.94349,0.5289 -1.84114,0.62443 -0.9049,0.0826 -1.978,-0.16513 l -0.21309,1.10463 q 1.22721,0.28026 2.32187,0.14223 1.10033,-0.15819 2.18599,-0.76678 0.67208,-0.37675 1.13932,-0.87647 0.46725,-0.49973 0.67954,-1.06037 0.22521,-0.56788 0.18979,-1.17649 -0.0354,-0.60862 -0.36146,-1.19023 -0.58685,-1.04688 -1.6439,-1.23569 -1.04412,-0.19604 -2.74467,0.3156 -0.83656,0.26512 -1.40895,0.36517 -0.57964,0.0871 -0.96698,0.0325 -0.39458,-0.0676 -0.64288,-0.2681 -0.2483,-0.20053 -0.42942,-0.52365 z"
         style="font-family:Gotham;-inkscape-font-specification:Gotham"
         id="path1455" /><path
         d="m 402.7967,257.68502 2.31257,-0.74609 -0.30936,-0.95887 -2.31256,0.74609 -0.70969,-2.19976 -1.08578,0.3503 0.70969,2.19976 -1.01527,0.32755 0.30936,0.95887 1.01527,-0.32756 1.41939,4.39952 q 0.17742,0.54994 0.45991,0.89472 0.2825,0.34479 0.6323,0.51217 0.35936,0.14873 0.77648,0.1387 0.41713,-0.01 0.85426,-0.15105 0.39482,-0.12738 0.67775,-0.31207 0.30158,-0.17514 0.53355,-0.42124 l -0.30025,-0.93067 q -0.23653,0.232 -0.47215,0.37029 -0.22152,0.13375 -0.50354,0.22473 -0.54994,0.17743 -0.9748,0.0187 -0.42486,-0.15873 -0.64323,-0.83558 z"
         style="font-family:Gotham;-inkscape-font-specification:Gotham"
         id="path1452" /><path
         d="m 411.02542,255.71308 q 1.07323,-0.13441 1.72759,0.3212 0.66722,0.43907 0.79612,1.4682 l 0.0331,0.26464 q -0.53298,-0.0826 -1.08799,-0.10266 -0.55502,-0.0201 -1.29011,0.072 -0.72039,0.0902 -1.30291,0.32744 -0.56782,0.23537 -0.97021,0.59935 -0.38769,0.36214 -0.564,0.86206 -0.17815,0.48521 -0.10265,1.08799 0.0755,0.60278 0.36596,1.01437 0.30517,0.40975 0.74079,0.66878 0.44847,0.24248 0.96675,0.32689 0.53298,0.0826 1.06224,0.0163 1.01443,-0.12705 1.6263,-0.60686 0.62657,-0.48165 0.95907,-1.04593 l 0.14362,1.14674 1.08794,-0.13625 -0.58185,-4.64578 q -0.18965,-1.51429 -1.12341,-2.17384 -0.93559,-0.67424 -2.49399,-0.47906 -0.838,0.10495 -1.46279,0.36239 -0.62662,0.24274 -1.22198,0.61595 l 0.45415,0.88387 q 0.49796,-0.31622 1.02352,-0.53137 0.53841,-0.23169 1.2147,-0.31639 z m 0.40132,2.84664 q 0.70568,-0.0884 1.26254,-0.0536 0.57156,0.0329 1.01264,0.0972 l 0.0921,0.73509 q 0.0571,0.45576 -0.10087,0.86379 -0.14509,0.39148 -0.46295,0.71501 -0.305,0.30698 -0.75521,0.52762 -0.43734,0.2041 -0.96661,0.27039 -0.38225,0.0479 -0.74798,-0.0108 -0.35103,-0.0606 -0.6396,-0.21855 -0.29041,-0.17268 -0.48712,-0.43176 -0.182,-0.26092 -0.22803,-0.62847 -0.0921,-0.73509 0.42791,-1.23325 0.51997,-0.49817 1.59321,-0.63258 z"
         style="font-family:Gotham;-inkscape-font-specification:Gotham"
         id="path1449" /><path
         d="m 424.33741,261.28735 -0.65998,-0.74569 q -0.50251,0.44445 -1.10799,0.71566 -0.59073,0.27259 -1.3284,0.20418 -0.60489,-0.0561 -1.10073,-0.32528 -0.47973,-0.28257 -0.82638,-0.71648 -0.33052,-0.4473 -0.5012,-1.0137 -0.15593,-0.56503 -0.0985,-1.18467 0.0575,-0.61965 0.31327,-1.13161 0.25716,-0.52673 0.66294,-0.89086 0.40714,-0.3789 0.92928,-0.55368 0.52351,-0.18954 1.09889,-0.13618 0.78193,0.0725 1.28158,0.46109 0.51441,0.38995 0.92799,0.90447 l 0.8263,-0.7269 q -0.23957,-0.30495 -0.52613,-0.58448 -0.28656,-0.27954 -0.63898,-0.49079 -0.35105,-0.226 -0.78407,-0.37031 -0.43303,-0.14432 -0.9789,-0.19494 -0.84095,-0.078 -1.59396,0.17955 -0.7369,0.24415 -1.31864,0.74077 -0.56699,0.49799 -0.93047,1.2083 -0.3621,0.69555 -0.43735,1.50699 -0.0753,0.81144 0.15278,1.56172 0.22803,0.75028 0.69378,1.34404 0.48187,0.58037 1.15993,0.97062 0.69418,0.37686 1.53513,0.45484 1.077,0.0999 1.83822,-0.24618 0.77598,-0.34469 1.41156,-0.94048 z"
         style="font-family:Gotham;-inkscape-font-specification:Gotham"
         id="path1446" /><path
         d="m 430.71808,259.93644 4.0658,-2.15094 -1.35453,-0.43416 -5.25264,2.8441 2.27937,-7.11124 -1.08644,-0.34824 -3.30147,10.30001 1.08644,0.34824 0.61054,-1.9048 1.9609,-1.02075 1.52035,4.23709 1.29808,0.41608 z"
         style="font-family:Gotham;-inkscape-font-specification:Gotham"
         id="path1443" /><path
         d="m 448.49605,269.76486 q 0.69148,-0.8509 0.97905,-1.83911 0.28757,-0.98821 0.15182,-1.99586 -0.12425,-0.99831 -0.67471,-1.94203 -0.52961,-0.94587 -1.4725,-1.71211 l -2.79417,-2.27066 -6.541,8.04905 2.79417,2.27067 q 0.94289,0.76623 1.97709,1.09118 1.0457,0.33429 2.04832,0.25172 1.01411,-0.0732 1.92261,-0.55684 0.91784,-0.49511 1.60932,-1.34601 z m -0.96158,-0.74324 q -0.55131,0.67842 -1.26,1.05713 -0.69718,0.38804 -1.48922,0.46991 -0.77118,0.0797 -1.58834,-0.18341 -0.81716,-0.26312 -1.57607,-0.87984 l -1.88578,-1.53247 5.17674,-6.37025 1.88578,1.53247 q 0.75891,0.61672 1.17426,1.37428 0.4247,0.74606 0.49506,1.52875 0.0912,0.78053 -0.15537,1.55385 -0.23509,0.78266 -0.77706,1.44958 z"
         style="font-family:Gotham;-inkscape-font-specification:Gotham"
         id="path1440" /><path
         d="m 449.80258,274.18071 3.58082,4.90728 q 0.0925,-0.0492 0.16433,-0.10157 0.0718,-0.0524 0.13166,-0.0961 0.68224,-0.49782 1.14095,-1.12601 0.4587,-0.62819 0.63081,-1.32238 0.17211,-0.69418 0.0304,-1.4162 -0.1297,-0.73074 -0.62752,-1.41298 -0.47162,-0.64632 -1.12472,-1.01349 -0.64437,-0.35519 -1.37544,-0.42702 -0.71909,-0.0806 -1.48348,0.12871 -0.74369,0.21251 -1.41395,0.7016 -0.71814,0.52403 -1.14192,1.20009 -0.41504,0.68804 -0.54024,1.42137 -0.11324,0.72459 0.0579,1.46181 0.18307,0.72848 0.64596,1.36284 0.6463,0.8857 1.39418,1.25707 0.75985,0.36264 1.6271,0.44515 l 0.0954,-0.95006 q -0.67445,-0.0948 -1.25445,-0.38691 -0.57126,-0.28015 -1.04288,-0.92648 -0.29695,-0.40694 -0.43603,-0.87405 -0.12712,-0.47584 -0.0821,-0.96721 0.0569,-0.5001 0.30021,-0.97108 0.25523,-0.47972 0.723,-0.89441 z m 0.68223,-0.49782 q 0.48975,-0.28401 0.99503,-0.39592 0.50528,-0.11192 0.97271,-0.0495 0.4794,0.0537 0.88828,0.28728 0.42084,0.22482 0.71779,0.63177 0.34061,0.46679 0.41435,0.9449 0.0945,0.48134 -0.0181,0.93033 -0.10385,0.46096 -0.39078,0.87209 -0.27821,0.42311 -0.67092,0.7647 z"
         style="font-family:Gotham;-inkscape-font-specification:Gotham"
         id="path1437" /><path
         d="m 453.83295,284.88096 4.80018,-4.89982 -0.50242,-1.15486 -5.75461,6.12295 0.40194,0.92389 8.40857,-0.0225 -0.4906,-1.12769 z"
         style="font-family:Gotham;-inkscape-font-specification:Gotham"
         id="path1434" /><path
         d="m 455.60623,296.25344 1.54087,-0.21468 -0.18811,-1.3501 -1.54087,0.21469 z"
         style="font-family:Gotham;-inkscape-font-specification:Gotham"
         id="path1431" /></g></g></svg>
